<svg width="744" height="690" viewBox="0 0 744 690" fill="none" xmlns="http://www.w3.org/2000/svg">
<path d="M163.693 506.366C149.123 563.426 313.241 627.943 376.993 610.689C408.896 631.038 426.025 500.407 506.099 492.498C586.174 484.589 489.868 343.665 556.751 252.663C623.633 161.661 473.487 28.9411 433.521 89.1586C319.346 261.189 186.491 208.426 119.477 305.063C46.5461 410.232 200.494 362.24 163.693 506.366Z" fill="#FEC5C5" fill-opacity="0.83"/>
<g clip-path="url(#clip0)">
<path d="M474.114 490.286V620.286H148.415C111.306 620.286 81.1142 591.126 81.1142 555.286C81.1142 519.446 111.306 490.286 148.415 490.286H474.114Z" fill="#F2F2F2"/>
<path d="M482.114 619.286C482.114 620.612 481.587 621.883 480.649 622.821C479.712 623.759 478.44 624.286 477.114 624.286H142.614C124.447 624.286 107.024 617.069 94.1774 604.223C81.3311 591.377 74.1142 573.953 74.1142 555.786C74.1142 537.619 81.3311 520.195 94.1774 507.349C107.024 494.503 124.447 487.286 142.614 487.286H477.114C478.44 487.286 479.712 487.813 480.65 488.751C481.587 489.688 482.114 490.96 482.114 492.286C482.114 493.612 481.587 494.884 480.65 495.822C479.712 496.759 478.44 497.286 477.114 497.286H142.614C127.099 497.286 112.219 503.449 101.248 514.42C90.2775 525.391 84.1142 540.271 84.1142 555.786C84.1142 571.301 90.2775 586.181 101.248 597.152C112.219 608.123 127.099 614.286 142.614 614.286H477.114C478.44 614.287 479.712 614.814 480.649 615.751C481.587 616.689 482.114 617.96 482.114 619.286Z" fill="#FDA6A6"/>
<path d="M474.114 520.286H124.114C123.849 520.286 123.595 520.181 123.407 519.993C123.22 519.806 123.114 519.551 123.114 519.286C123.114 519.021 123.22 518.767 123.407 518.579C123.595 518.391 123.849 518.286 124.114 518.286H474.114C474.379 518.286 474.634 518.391 474.821 518.579C475.009 518.767 475.114 519.021 475.114 519.286C475.114 519.551 475.009 519.806 474.821 519.993C474.634 520.181 474.379 520.286 474.114 520.286Z" fill="#CCCCCC"/>
<path d="M474.114 544.286H124.114C123.849 544.286 123.595 544.181 123.407 543.993C123.22 543.806 123.114 543.551 123.114 543.286C123.114 543.021 123.22 542.767 123.407 542.579C123.595 542.391 123.849 542.286 124.114 542.286H474.114C474.379 542.286 474.634 542.391 474.821 542.579C475.009 542.767 475.114 543.021 475.114 543.286C475.114 543.551 475.009 543.806 474.821 543.993C474.634 544.181 474.379 544.286 474.114 544.286Z" fill="#CCCCCC"/>
<path d="M474.114 568.286H124.114C123.849 568.286 123.595 568.181 123.407 567.993C123.22 567.806 123.114 567.551 123.114 567.286C123.114 567.021 123.22 566.767 123.407 566.579C123.595 566.391 123.849 566.286 124.114 566.286H474.114C474.379 566.286 474.634 566.391 474.821 566.579C475.009 566.767 475.114 567.021 475.114 567.286C475.114 567.551 475.009 567.806 474.821 567.993C474.634 568.181 474.379 568.286 474.114 568.286Z" fill="#CCCCCC"/>
<path d="M474.114 592.286H124.114C123.849 592.286 123.595 592.181 123.407 591.993C123.22 591.806 123.114 591.551 123.114 591.286C123.114 591.021 123.22 590.767 123.407 590.579C123.595 590.391 123.849 590.286 124.114 590.286H474.114C474.379 590.286 474.634 590.391 474.821 590.579C475.009 590.767 475.114 591.021 475.114 591.286C475.114 591.551 475.009 591.806 474.821 591.993C474.634 592.181 474.379 592.286 474.114 592.286Z" fill="#CCCCCC"/>
<path d="M725.832 514.757L644.267 615.985L390.652 411.635C361.756 388.352 356.541 346.703 379.028 318.795C401.515 290.887 443.32 287.124 472.216 310.407L725.832 514.757Z" fill="#F2F2F2"/>
<path d="M651.124 620.226C650.291 621.258 649.083 621.918 647.765 622.059C646.447 622.201 645.126 621.814 644.093 620.982L383.625 411.11C369.478 399.712 360.439 383.16 358.496 365.097C356.553 347.034 361.865 328.939 373.263 314.792C384.662 300.646 401.213 291.607 419.276 289.663C437.34 287.72 455.435 293.032 469.581 304.431L730.05 514.303C730.562 514.715 730.987 515.224 731.302 515.8C731.617 516.376 731.816 517.009 731.886 517.662C731.957 518.315 731.898 518.976 731.713 519.606C731.528 520.236 731.221 520.824 730.808 521.336C730.396 521.847 729.887 522.272 729.311 522.587C728.734 522.902 728.101 523.1 727.448 523.17C726.795 523.24 726.135 523.181 725.505 522.995C724.874 522.81 724.287 522.502 723.776 522.09L463.307 312.218C457.325 307.394 450.452 303.796 443.08 301.63C435.707 299.463 427.98 298.77 420.34 299.59C412.699 300.411 405.295 302.728 398.551 306.411C391.806 310.093 385.854 315.068 381.032 321.052C376.211 327.036 372.616 333.91 370.452 341.284C368.288 348.657 367.598 356.384 368.422 364.024C369.245 371.664 371.566 379.067 375.251 385.81C378.936 392.553 383.913 398.504 389.899 403.323L650.367 613.196C651.4 614.028 652.059 615.236 652.201 616.554C652.343 617.873 651.955 619.193 651.124 620.226V620.226Z" fill="#FDA6A6"/>
<path d="M707.009 538.117L434.471 318.52C434.369 318.438 434.284 318.336 434.221 318.221C434.158 318.105 434.118 317.979 434.104 317.848C434.09 317.718 434.102 317.586 434.139 317.46C434.176 317.334 434.237 317.216 434.32 317.114C434.402 317.012 434.504 316.927 434.619 316.864C434.734 316.801 434.861 316.761 434.991 316.747C435.122 316.733 435.254 316.745 435.38 316.782C435.506 316.819 435.623 316.88 435.726 316.963L708.264 536.56C708.366 536.642 708.451 536.744 708.515 536.859C708.578 536.975 708.617 537.101 708.632 537.232C708.646 537.363 708.634 537.495 708.597 537.621C708.56 537.747 708.498 537.865 708.416 537.967C708.334 538.069 708.232 538.154 708.116 538.217C708.001 538.28 707.874 538.32 707.744 538.334C707.613 538.348 707.481 538.336 707.355 538.299C707.229 538.262 707.111 538.2 707.009 538.117V538.117Z" fill="#CCCCCC"/>
<path d="M691.951 556.806L419.413 337.208C419.207 337.042 419.075 336.8 419.047 336.537C419.019 336.273 419.096 336.009 419.263 335.803C419.429 335.597 419.67 335.465 419.934 335.436C420.197 335.408 420.461 335.485 420.668 335.651L693.206 555.248C693.308 555.331 693.393 555.432 693.456 555.548C693.52 555.663 693.559 555.79 693.573 555.92C693.588 556.051 693.576 556.183 693.539 556.309C693.502 556.435 693.44 556.553 693.358 556.655C693.275 556.758 693.174 556.843 693.058 556.906C692.943 556.969 692.816 557.008 692.686 557.022C692.555 557.036 692.423 557.024 692.297 556.987C692.171 556.95 692.053 556.888 691.951 556.806V556.806Z" fill="#CCCCCC"/>
<path d="M676.893 575.494L404.355 355.897C404.148 355.73 404.016 355.489 403.988 355.225C403.959 354.961 404.037 354.697 404.203 354.491C404.37 354.284 404.611 354.152 404.875 354.124C405.139 354.095 405.403 354.173 405.61 354.339L678.148 573.937C678.25 574.019 678.335 574.121 678.398 574.236C678.461 574.351 678.5 574.478 678.514 574.608C678.528 574.739 678.517 574.871 678.48 574.997C678.443 575.123 678.381 575.241 678.299 575.343C678.216 575.445 678.115 575.53 677.999 575.593C677.884 575.656 677.758 575.696 677.627 575.71C677.497 575.724 677.364 575.712 677.238 575.675C677.112 575.638 676.995 575.576 676.893 575.494V575.494Z" fill="#CCCCCC"/>
<path d="M661.835 594.182L389.297 374.585C389.194 374.503 389.109 374.401 389.046 374.286C388.983 374.17 388.944 374.044 388.93 373.913C388.916 373.783 388.927 373.651 388.964 373.525C389.001 373.399 389.063 373.281 389.145 373.179C389.228 373.077 389.329 372.992 389.445 372.929C389.56 372.866 389.686 372.826 389.817 372.812C389.948 372.798 390.08 372.81 390.206 372.847C390.332 372.884 390.449 372.945 390.551 373.028L663.089 592.625C663.192 592.707 663.277 592.809 663.34 592.924C663.403 593.04 663.443 593.166 663.457 593.297C663.471 593.428 663.46 593.56 663.423 593.686C663.386 593.812 663.324 593.93 663.242 594.032C663.159 594.134 663.057 594.219 662.942 594.282C662.827 594.345 662.7 594.385 662.569 594.399C662.439 594.413 662.307 594.401 662.18 594.364C662.054 594.327 661.937 594.265 661.835 594.182V594.182Z" fill="#CCCCCC"/>
<path d="M743 625.286H1C0.734784 625.286 0.480429 625.181 0.292892 624.993C0.105356 624.806 0 624.551 0 624.286C0 624.021 0.105356 623.766 0.292892 623.579C0.480429 623.391 0.734784 623.286 1 623.286H743C743.265 623.286 743.52 623.391 743.707 623.579C743.895 623.766 744 624.021 744 624.286C744 624.551 743.895 624.806 743.707 624.993C743.52 625.181 743.265 625.286 743 625.286Z" fill="#CCCCCC"/>
<path d="M338.081 476.622L326.649 476.621L321.212 432.525L338.085 432.527L338.081 476.622Z" fill="#FFB8B8"/>
<path d="M318.482 473.355H340.53V487.237H304.6C304.6 485.414 304.96 483.608 305.657 481.924C306.355 480.24 307.377 478.71 308.666 477.421C309.955 476.132 311.486 475.109 313.17 474.411C314.854 473.714 316.659 473.355 318.482 473.355V473.355Z" fill="#2F2E41"/>
<path d="M221.286 476.622L209.854 476.621L204.417 432.525L221.29 432.527L221.286 476.622Z" fill="#FFB8B8"/>
<path d="M201.688 473.355H223.736V487.237H187.806C187.806 485.414 188.165 483.608 188.863 481.924C189.56 480.24 190.583 478.71 191.872 477.421C193.161 476.132 194.691 475.109 196.375 474.411C198.06 473.714 199.865 473.355 201.688 473.355V473.355Z" fill="#2F2E41"/>
<path d="M259.471 149.533V144.533C259.471 135.98 262.869 127.777 268.917 121.729C274.965 115.681 283.168 112.283 291.721 112.283H291.721C300.274 112.283 308.477 115.681 314.525 121.729C320.573 127.777 323.971 135.98 323.971 144.533V149.533C323.971 155.699 321.521 161.613 317.161 165.973C312.801 170.334 306.887 172.783 300.721 172.783H282.721C279.668 172.783 276.644 172.182 273.824 171.013C271.003 169.845 268.44 168.132 266.281 165.973C264.122 163.814 262.409 161.251 261.241 158.431C260.072 155.61 259.471 152.586 259.471 149.533V149.533Z" fill="#2F2E41"/>
<path d="M291.721 174.504C305.286 174.504 316.282 163.507 316.282 149.943C316.282 136.378 305.286 125.382 291.721 125.382C278.156 125.382 267.16 136.378 267.16 149.943C267.16 163.507 278.156 174.504 291.721 174.504Z" fill="#FFB8B8"/>
<path d="M158.125 234.356C159.121 233.414 160.312 232.703 161.614 232.272C162.915 231.841 164.295 231.701 165.656 231.86C167.018 232.02 168.328 232.477 169.494 233.198C170.66 233.919 171.653 234.887 172.405 236.033L193.459 232.05L199 244.255L169.188 249.462C167.178 250.596 164.822 250.955 162.566 250.468C160.31 249.982 158.311 248.685 156.947 246.823C155.583 244.961 154.95 242.663 155.167 240.365C155.384 238.068 156.436 235.929 158.125 234.356V234.356Z" fill="#FFB8B8"/>
<path d="M272.573 189.971L272.848 190.389L238.322 213.133L180.064 231.736C179.292 231.984 178.629 232.492 178.189 233.174C177.75 233.856 177.56 234.669 177.652 235.474L178.923 246.421C178.979 246.906 179.136 247.373 179.384 247.793C179.631 248.213 179.964 248.577 180.36 248.862C180.757 249.146 181.208 249.344 181.685 249.443C182.163 249.543 182.656 249.542 183.133 249.44L237.963 237.687C240.616 237.121 243.125 236.017 245.334 234.441L284.122 206.844C285.528 205.839 286.65 204.486 287.379 202.918C288.108 201.35 288.418 199.62 288.28 197.897C288.138 196.171 287.549 194.512 286.571 193.083C285.593 191.654 284.26 190.504 282.703 189.746C281.146 188.989 279.418 188.65 277.69 188.762C275.962 188.875 274.294 189.435 272.848 190.389L272.573 189.971Z" fill="#CCCCCC"/>
<path d="M326.853 464.109C325.976 464.109 325.117 463.854 324.382 463.374C323.648 462.894 323.068 462.211 322.716 461.408L270.306 331.907C270.183 331.626 269.978 331.389 269.717 331.228C269.456 331.068 269.152 330.991 268.846 331.008C268.54 331.025 268.247 331.136 268.006 331.325C267.765 331.514 267.587 331.772 267.497 332.065L224.739 458.139C224.558 458.725 224.26 459.269 223.861 459.736C223.463 460.203 222.973 460.584 222.422 460.854C221.871 461.125 221.271 461.28 220.658 461.311C220.045 461.341 219.432 461.245 218.857 461.03L204.519 455.653C203.74 455.364 203.058 454.864 202.546 454.21C202.035 453.556 201.715 452.773 201.622 451.948C195.171 395.756 251.422 253.918 251.991 252.493L252.148 252.098L303.425 263.44L303.532 263.557C323.99 285.874 340.806 426.639 343.969 454.63C344.087 455.641 343.857 456.662 343.317 457.525C342.777 458.388 341.959 459.041 340.998 459.377L328.341 463.853C327.864 464.022 327.36 464.109 326.853 464.109Z" fill="#2F2E41"/>
<path d="M282.673 268.006C270.249 268.006 256.398 265.529 252.135 255.305L252.037 255.07L252.169 254.852C255.534 249.331 259.982 239.912 257.591 238.144C252.882 234.662 250.597 228.934 250.8 221.119C251.24 204.153 262.8 189.09 279.566 183.636H279.566C284.246 182.139 289.008 180.912 293.829 179.964C297.344 179.255 300.972 179.333 304.453 180.192C307.934 181.052 311.181 182.672 313.962 184.935C316.777 187.214 319.053 190.088 320.626 193.351C322.198 196.614 323.029 200.184 323.057 203.806C323.233 221.937 320.442 247.189 306.145 264.526C305.475 265.331 304.543 265.873 303.512 266.058C296.634 267.302 289.662 267.953 282.673 268.006Z" fill="#CCCCCC"/>
<path d="M278.051 267.327C278.727 264.902 280.333 262.841 282.52 261.593C284.707 260.345 287.298 260.011 289.73 260.663C290.226 260.801 290.71 260.981 291.177 261.199L307.164 246.65L318.282 254.14L295.42 274.371C294.388 276.233 292.763 277.695 290.803 278.526C288.844 279.357 286.663 279.509 284.607 278.958C283.41 278.63 282.289 278.068 281.31 277.305C280.331 276.541 279.513 275.591 278.903 274.51C278.294 273.428 277.904 272.237 277.758 271.004C277.612 269.771 277.711 268.521 278.051 267.327V267.327Z" fill="#FFB8B8"/>
<path d="M304.632 267.512C303.594 267.512 302.589 267.154 301.786 266.496L295.482 261.345C294.956 260.915 294.535 260.372 294.249 259.757C293.963 259.141 293.82 258.469 293.83 257.791C293.841 257.112 294.004 256.445 294.309 255.838C294.614 255.232 295.052 254.702 295.591 254.289L322.033 234.01C322.346 233.768 322.552 233.413 322.605 233.021C322.658 232.628 322.554 232.231 322.316 231.915L305.996 210.339C304.1 207.84 303.149 204.752 303.311 201.619C303.473 198.487 304.739 195.513 306.883 193.225V193.225C309.142 190.785 312.234 189.284 315.548 189.019C318.861 188.754 322.154 189.745 324.771 191.794L324.874 191.903L341.916 216.305C343.759 217.75 345.243 219.601 346.252 221.715C347.261 223.828 347.768 226.146 347.733 228.487C347.698 230.829 347.122 233.13 346.051 235.213C344.979 237.295 343.441 239.101 341.556 240.491L307.31 266.629C306.535 267.202 305.596 267.512 304.632 267.512Z" fill="#CCCCCC"/>
<path d="M269.965 143.033V130.847L291.721 121.347L312.465 130.847V143.033C312.465 143.564 312.255 144.072 311.879 144.447C311.504 144.822 310.996 145.033 310.465 145.033H271.965C271.435 145.033 270.926 144.822 270.551 144.447C270.176 144.072 269.965 143.564 269.965 143.033Z" fill="#2F2E41"/>
<path d="M290.722 113.9C287.523 103.661 294.241 91.9274 304.173 87.8747C314.105 83.8221 325.986 86.655 334.367 93.3506C342.747 100.046 347.946 110.075 350.701 120.442C353.456 130.809 353.979 141.619 354.488 152.333C366.69 154.575 374.991 169.047 370.763 180.711C366.536 192.376 350.891 198.17 340.086 192.074C329.281 185.977 326.151 169.589 333.949 159.94C337.639 155.374 339.7 149.708 339.807 143.839C339.913 137.969 338.057 132.232 334.535 127.536C331.012 122.84 326.023 119.454 320.359 117.913C314.694 116.372 308.677 116.765 303.262 119.03C297.248 121.545 289.702 115.011 290.722 113.9Z" fill="#2F2E41"/>
<path d="M153.614 187.083C139.005 186.987 124.578 183.827 111.266 177.808C110.474 177.455 109.801 176.879 109.33 176.15C108.859 175.421 108.611 174.572 108.614 173.704V137.286C108.615 136.093 109.09 134.949 109.934 134.106C110.777 133.262 111.921 132.787 113.114 132.786H194.114C195.307 132.787 196.451 133.262 197.295 134.106C198.138 134.949 198.613 136.093 198.614 137.286V173.704C198.618 174.572 198.369 175.421 197.898 176.15C197.427 176.879 196.755 177.455 195.962 177.808C182.65 183.827 168.224 186.987 153.614 187.083V187.083Z" fill="#FDA6A6"/>
<path d="M153.603 157.58C153.003 157.58 152.408 157.461 151.854 157.228L87.6225 130.129C86.7941 129.779 86.0895 129.19 85.5993 128.436C85.1092 127.683 84.856 126.799 84.8725 125.9C84.889 125.002 85.1743 124.128 85.6918 123.393C86.2092 122.658 86.935 122.095 87.7755 121.776L152.008 97.4081C153.043 97.0138 154.187 97.0162 155.22 97.4149L218.592 121.783C219.427 122.104 220.148 122.667 220.662 123.401C221.176 124.134 221.459 125.004 221.476 125.9C221.492 126.795 221.241 127.675 220.755 128.427C220.269 129.179 219.569 129.768 218.746 130.12L155.373 157.22C154.813 157.458 154.211 157.581 153.603 157.58V157.58Z" fill="#FDA6A6"/>
<path d="M116.114 180.286C119.428 180.286 122.114 177.6 122.114 174.286C122.114 170.972 119.428 168.286 116.114 168.286C112.8 168.286 110.114 170.972 110.114 174.286C110.114 177.6 112.8 180.286 116.114 180.286Z" fill="#3F3D56"/>
<path opacity="0.2" d="M218.965 126.274L155.592 153.373C155.098 153.584 154.566 153.694 154.029 153.695C153.491 153.696 152.959 153.589 152.464 153.381L88.2323 126.282C87.4257 125.95 86.7527 125.358 86.3197 124.601C86.0365 125.092 85.861 125.638 85.8049 126.202C85.7487 126.766 85.8132 127.336 85.9941 127.873C86.175 128.41 86.4681 128.903 86.854 129.318C87.2399 129.733 87.7097 130.062 88.2323 130.282L152.464 157.381C152.959 157.589 153.491 157.696 154.029 157.695C154.566 157.694 155.098 157.584 155.592 157.373L218.965 130.274C219.485 130.052 219.952 129.723 220.335 129.307C220.718 128.892 221.009 128.399 221.188 127.863C221.367 127.327 221.43 126.759 221.374 126.197C221.317 125.634 221.142 125.09 220.859 124.601C220.429 125.352 219.763 125.94 218.965 126.274V126.274Z" fill="black"/>
<path d="M116.618 174.263C116.884 174.263 117.138 174.157 117.325 173.97C117.513 173.782 117.618 173.528 117.618 173.263V139.801L150.6 127.786C150.865 127.79 151.121 127.688 151.311 127.504C151.501 127.319 151.61 127.066 151.614 126.801C151.618 126.536 151.517 126.28 151.332 126.089C151.147 125.899 150.895 125.79 150.629 125.786L117.648 137.801C117.383 137.795 117.119 137.843 116.872 137.942C116.626 138.041 116.402 138.188 116.215 138.376C116.025 138.562 115.875 138.784 115.772 139.028C115.67 139.273 115.618 139.536 115.618 139.801V173.263C115.618 173.528 115.724 173.782 115.911 173.97C116.099 174.157 116.353 174.263 116.618 174.263V174.263Z" fill="#3F3D56"/>
</g>
<path d="M41.8583 299.97L8 285.615L41.8583 274.785L55.2441 236L63.9055 274.785L108 285.615L63.9055 299.97L55.2441 338L41.8583 299.97Z" fill="#FFF973"/>
<path d="M307.362 63.2568L284 54.6716L307.362 48.1951L316.598 25L322.575 48.1951L353 54.6716L322.575 63.2568L316.598 86L307.362 63.2568Z" fill="#FFF973"/>
<path d="M456.858 495.089L423 481.156L456.858 470.644L470.244 433L478.906 470.644L523 481.156L478.906 495.089L470.244 532L456.858 495.089Z" fill="#FFF973"/>
<defs>
<clipPath id="clip0">
<rect width="744" height="539.286" fill="white" transform="translate(0 86.0001)"/>
</clipPath>
</defs>
</svg>
