<svg width="553" height="843" viewBox="0 0 553 843" fill="none" xmlns="http://www.w3.org/2000/svg">
<ellipse cx="276.5" cy="575" rx="276.5" ry="268" fill="#FFD1D1"/>
<g clip-path="url(#clip0)">
<path d="M448.21 0H104.73C91.072 0 80 11.072 80 24.73V690.27C80 703.928 91.072 715 104.73 715H448.21C461.868 715 472.94 703.928 472.94 690.27V24.73C472.94 11.072 461.868 0 448.21 0Z" fill="url(#paint0_linear)"/>
<path d="M439.16 9.95001H113.78C100.122 9.95001 89.05 21.022 89.05 34.68V673.65C89.05 687.308 100.122 698.38 113.78 698.38H439.16C452.818 698.38 463.89 687.308 463.89 673.65V34.68C463.89 21.022 452.818 9.95001 439.16 9.95001Z" fill="white"/>
<path d="M421.2 58.61H131V618.85H421.2V58.61Z" fill="#FDA6A6"/>
<path d="M180.485 332.575V338.965H190.79V344.905H180.485V351.835H192.14V358H172.79V326.41H192.14V332.575H180.485ZM216.486 339.01V345.4H196.686V339.01H216.486ZM241.554 358L230.934 344.05V358H223.239V326.41H230.934V340.27L241.464 326.41H250.509L238.269 341.89L250.959 358H241.554ZM279.411 332.89V358H271.716V354.58C270.936 355.69 269.871 356.59 268.521 357.28C267.201 357.94 265.731 358.27 264.111 358.27C262.191 358.27 260.496 357.85 259.026 357.01C257.556 356.14 256.416 354.895 255.606 353.275C254.796 351.655 254.391 349.75 254.391 347.56V332.89H262.041V346.525C262.041 348.205 262.476 349.51 263.346 350.44C264.216 351.37 265.386 351.835 266.856 351.835C268.356 351.835 269.541 351.37 270.411 350.44C271.281 349.51 271.716 348.205 271.716 346.525V332.89H279.411ZM292.633 337.075C293.533 335.695 294.658 334.615 296.008 333.835C297.358 333.025 298.858 332.62 300.508 332.62V340.765H298.393C296.473 340.765 295.033 341.185 294.073 342.025C293.113 342.835 292.633 344.275 292.633 346.345V358H284.938V332.89H292.633V337.075ZM314.401 358.36C312.211 358.36 310.261 357.985 308.551 357.235C306.841 356.485 305.491 355.465 304.501 354.175C303.511 352.855 302.956 351.385 302.836 349.765H310.441C310.531 350.635 310.936 351.34 311.656 351.88C312.376 352.42 313.261 352.69 314.311 352.69C315.271 352.69 316.006 352.51 316.516 352.15C317.056 351.76 317.326 351.265 317.326 350.665C317.326 349.945 316.951 349.42 316.201 349.09C315.451 348.73 314.236 348.34 312.556 347.92C310.756 347.5 309.256 347.065 308.056 346.615C306.856 346.135 305.821 345.4 304.951 344.41C304.081 343.39 303.646 342.025 303.646 340.315C303.646 338.875 304.036 337.57 304.816 336.4C305.626 335.2 306.796 334.255 308.326 333.565C309.886 332.875 311.731 332.53 313.861 332.53C317.011 332.53 319.486 333.31 321.286 334.87C323.116 336.43 324.166 338.5 324.436 341.08H317.326C317.206 340.21 316.816 339.52 316.156 339.01C315.526 338.5 314.686 338.245 313.636 338.245C312.736 338.245 312.046 338.425 311.566 338.785C311.086 339.115 310.846 339.58 310.846 340.18C310.846 340.9 311.221 341.44 311.971 341.8C312.751 342.16 313.951 342.52 315.571 342.88C317.431 343.36 318.946 343.84 320.116 344.32C321.286 344.77 322.306 345.52 323.176 346.57C324.076 347.59 324.541 348.97 324.571 350.71C324.571 352.18 324.151 353.5 323.311 354.67C322.501 355.81 321.316 356.71 319.756 357.37C318.226 358.03 316.441 358.36 314.401 358.36ZM354.074 332.89V358H346.379V354.58C345.599 355.69 344.534 356.59 343.184 357.28C341.864 357.94 340.394 358.27 338.774 358.27C336.854 358.27 335.159 357.85 333.689 357.01C332.219 356.14 331.079 354.895 330.269 353.275C329.459 351.655 329.054 349.75 329.054 347.56V332.89H336.704V346.525C336.704 348.205 337.139 349.51 338.009 350.44C338.879 351.37 340.049 351.835 341.519 351.835C343.019 351.835 344.204 351.37 345.074 350.44C345.944 349.51 346.379 348.205 346.379 346.525V332.89H354.074ZM369.817 358.36C367.627 358.36 365.677 357.985 363.967 357.235C362.257 356.485 360.907 355.465 359.917 354.175C358.927 352.855 358.372 351.385 358.252 349.765H365.857C365.947 350.635 366.352 351.34 367.072 351.88C367.792 352.42 368.677 352.69 369.727 352.69C370.687 352.69 371.422 352.51 371.932 352.15C372.472 351.76 372.742 351.265 372.742 350.665C372.742 349.945 372.367 349.42 371.617 349.09C370.867 348.73 369.652 348.34 367.972 347.92C366.172 347.5 364.672 347.065 363.472 346.615C362.272 346.135 361.237 345.4 360.367 344.41C359.497 343.39 359.062 342.025 359.062 340.315C359.062 338.875 359.452 337.57 360.232 336.4C361.042 335.2 362.212 334.255 363.742 333.565C365.302 332.875 367.147 332.53 369.277 332.53C372.427 332.53 374.902 333.31 376.702 334.87C378.532 336.43 379.582 338.5 379.852 341.08H372.742C372.622 340.21 372.232 339.52 371.572 339.01C370.942 338.5 370.102 338.245 369.052 338.245C368.152 338.245 367.462 338.425 366.982 338.785C366.502 339.115 366.262 339.58 366.262 340.18C366.262 340.9 366.637 341.44 367.387 341.8C368.167 342.16 369.367 342.52 370.987 342.88C372.847 343.36 374.362 343.84 375.532 344.32C376.702 344.77 377.722 345.52 378.592 346.57C379.492 347.59 379.957 348.97 379.987 350.71C379.987 352.18 379.567 353.5 378.727 354.67C377.917 355.81 376.732 356.71 375.172 357.37C373.642 358.03 371.857 358.36 369.817 358.36Z" fill="black" fill-opacity="0.83"/>
<path d="M276.47 682.95C289.25 682.95 299.61 672.321 299.61 659.21C299.61 646.099 289.25 635.47 276.47 635.47C263.69 635.47 253.33 646.099 253.33 659.21C253.33 672.321 263.69 682.95 276.47 682.95Z" fill="#DBDBDB"/>
<path d="M232.51 37.25C235.067 37.25 237.14 35.1234 237.14 32.5C237.14 29.8766 235.067 27.75 232.51 27.75C229.953 27.75 227.88 29.8766 227.88 32.5C227.88 35.1234 229.953 37.25 232.51 37.25Z" fill="#DBDBDB"/>
<path d="M323.56 28.94H254.83C254.002 28.94 253.33 29.6116 253.33 30.44V34.56C253.33 35.3884 254.002 36.06 254.83 36.06H323.56C324.388 36.06 325.06 35.3884 325.06 34.56V30.44C325.06 29.6116 324.388 28.94 323.56 28.94Z" fill="#DBDBDB"/>
</g>
<defs>
<linearGradient id="paint0_linear" x1="276.47" y1="715" x2="276.47" y2="0" gradientUnits="userSpaceOnUse">
<stop offset="0.01" stop-color="#808080" stop-opacity="0.25"/>
<stop offset="0.54" stop-color="#808080" stop-opacity="0.12"/>
<stop offset="1" stop-color="#808080" stop-opacity="0.1"/>
</linearGradient>
<clipPath id="clip0">
<rect width="392.94" height="715" fill="white" transform="translate(80)"/>
</clipPath>
</defs>
</svg>
